<svg xmlns="http://www.w3.org/2000/svg" xmlns:xlink="http://www.w3.org/1999/xlink" id="svg1247" width="160" height="160"><defs id="defs1249"><linearGradient id="linearGradient3184"><stop id="stop3186" offset="0" style="stop-color:#fff;stop-opacity:1"/><stop id="stop3188" offset="1" style="stop-color:#fff;stop-opacity:0"/></linearGradient><linearGradient xlink:href="#linearGradient3184" id="linearGradient3192" x1="308.75" x2="345.938" y1="111.5" y2="113.5" gradientUnits="userSpaceOnUse"/><linearGradient xlink:href="#linearGradient3184" id="linearGradient3196" x1="308.75" x2="345.938" y1="111.5" y2="113.5" gradientTransform="matrix(-1 0 0 1 720.563 1)" gradientUnits="userSpaceOnUse"/></defs><g id="g849" transform="translate(-280.5 -43.5)"><path id="path1255" d="M404.616 106.606c0 2.94-17.915 5.708-46.515 5.708s-44.646-2.577-44.646-5.517 16.045-5.135 44.646-5.135 46.515 2.004 46.515 4.944" style="fill:#f60;fill-opacity:.5;fill-rule:evenodd;stroke:none;stroke-width:2.5;stroke-linejoin:round;stroke-dasharray:none"/><g id="g1269" transform="translate(120.438 -31.063)"><path id="path1259" d="m249.647 121.76 21.916 6.365s1.25 17.813-.625 21.875c-3.75.938-22.813-4.062-22.813-7.187s-2.853-15.429 1.522-21.054z" style="fill:#7573ae;fill-opacity:.15;fill-rule:evenodd;stroke:#000;stroke-width:1pt" transform="rotate(50.156 247.259 120.806)"/><path id="path1260" d="M271.563 128.125s1.25 20.938-.313 21.875 15.625-3.437 15.625-6.875c0-3.437-.625-17.187-1.562-19.062s-13.75 2.5-13.75 4.062z" style="fill:#7573ae;fill-opacity:.15;fill-rule:evenodd;stroke:#000;stroke-width:1pt" transform="rotate(50.156 247.259 120.806)"/><path id="path1261" d="M250 121.875c1.563.625 17.188 4.375 21.25 6.25.938-.937 8.184-5.222 13.184-4.91 2.187 1.563-12.247-5.09-16.309-7.278-2.812 2.813-13.437 1.563-18.125 5.938z" style="fill:#7573ae;fill-opacity:.15;fill-rule:evenodd;stroke:#000;stroke-width:1pt" transform="rotate(50.156 247.259 120.806)"/></g><path id="path1253" d="M408.358 166.64c0 3.88-20.904 8.798-47.75 8.798-26.847 0-48.635-6.685-48.635-10.565s21.081-3.495 47.927-3.495c26.847 0 48.458 1.382 48.458 5.262z" style="fill:#7573ae;fill-opacity:.14902003;fill-rule:evenodd;stroke:#000;stroke-width:2.49999976;stroke-linejoin:round;stroke-dasharray:none"/><path id="path1257" d="m315.455 106.102-2.583 46.046c6.216 3.15 22.667 4.95 46.924 5.452 16.171-.68 36.58-1.8 47.885-6.452 1.155-.907-2.938-44.88-2.938-44.88-4.043 2.719-20.51 4.855-47.655 5.082-26.32.191-41.633-2.529-41.633-5.248" style="fill:#f60;fill-opacity:.61989794;fill-rule:evenodd;stroke:none;stroke-width:2.5;stroke-linejoin:round;stroke-dasharray:none"/><path id="path2411" d="M406.535 150.408c0 3.88-20.892 7.03-46.635 7.03s-46.634-3.15-46.634-7.03 20.892-7.03 46.634-7.03 46.635 3.15 46.635 7.03z" style="fill:#7573ae;fill-opacity:.14902003;fill-rule:evenodd;stroke:#000;stroke-width:2.49999976;stroke-linejoin:round;stroke-dasharray:none"/><path id="path2409" d="m315.801 78.908-3.797 87.332c.477 2.662 32.316 9.487 52.36 8.822 13.361-.999 34.997-1.333 44.064-7.322.954-1.33-4.324-88.308-4.324-88.308-3.34 3.992-21.606 7.128-44.036 7.46-21.474 0-44.267-3.992-44.267-7.984z" style="fill:#7573ae;fill-opacity:.15;fill-rule:evenodd;stroke:#000;stroke-width:2.5;stroke-linejoin:round;stroke-dasharray:none"/><path id="path1273" d="M316.938 78.713c-.676 8.206 24.688 10.418 28.518 9.075 1.563-.312-1.138 80.699-1.537 83.292-4.317.12-27.29-3.862-30.794-6.955z" style="fill:url(#linearGradient3192);fill-opacity:1;fill-rule:evenodd;stroke:none;stroke-width:1pt;stroke-linecap:butt;stroke-linejoin:miter;stroke-opacity:1"/><path id="path3194" d="M403.626 79.713c.675 8.206-24.688 10.418-28.519 9.075-1.562-.312 1.138 80.699 1.538 83.292 4.316.12 27.288-3.862 30.793-6.955z" style="fill:url(#linearGradient3196);fill-opacity:1;fill-rule:evenodd;stroke:none;stroke-width:1pt;stroke-linecap:butt;stroke-linejoin:miter;stroke-opacity:1"/><path id="path1252" d="M403.674 79.742c0 4.315-19.65 7.818-43.863 7.818s-43.863-3.503-43.863-7.818c0-4.316 19.65-7.82 43.863-7.82 24.212 0 43.863 3.504 43.863 7.82z" style="fill:#7573ae;fill-opacity:.15;fill-rule:evenodd;stroke:#000;stroke-width:2.5;stroke-linejoin:round;stroke-dasharray:none"/></g></svg>
